<svg xmlns="http://www.w3.org/2000/svg" version="1.1" xmlns:xlink="http://www.w3.org/1999/xlink" xmlns:svgjs="http://svgjs.dev/svgjs" width="1000" height="999" viewBox="0 0 1000 999"><g transform="matrix(1,0,0,1,-0.215743440233382,-0.21552769679306039)"><svg viewBox="0 0 343 343" data-background-color="#ffffff" preserveAspectRatio="xMidYMid meet" height="999" width="1000" xmlns="http://www.w3.org/2000/svg" xmlns:xlink="http://www.w3.org/1999/xlink"><g id="tight-bounds" transform="matrix(1,0,0,1,0.0740000000000407,0.07400000000001228)"><svg viewBox="0 0 342.85155851775386 342.85155851775386" height="342.85155851775386" width="342.85155851775386"><g><svg></svg></g><g><svg viewBox="0 0 342.85155851775386 342.85155851775386" height="342.85155851775386" width="342.85155851775386"><g><path d="M0 171.426c0-94.676 76.75-171.426 171.426-171.426 94.676 0 171.426 76.75 171.426 171.426 0 94.676-76.75 171.426-171.426 171.426-94.676 0-171.426-76.75-171.426-171.426zM171.426 330.676c87.951 0 159.25-71.299 159.25-159.25 0-87.951-71.299-159.25-159.25-159.25-87.951 0-159.25 71.299-159.25 159.25 0 87.951 71.299 159.25 159.25 159.25z" data-fill-palette-color="tertiary" fill="#ee3e38" stroke="transparent"></path><ellipse rx="164.56874808852186" ry="164.56874808852186" cx="171.42577925887693" cy="171.42577925887693" fill="#ee3e38" stroke="transparent" stroke-width="0" fill-opacity="1" data-fill-palette-color="tertiary"></ellipse></g><g transform="matrix(1,0,0,1,64.84655864529837,83.59085593712223)"><svg viewBox="0 0 213.1584412271571 175.6698466435094" height="175.6698466435094" width="213.1584412271571"><g><svg viewBox="0 0 213.1584412271571 175.6698466435094" height="175.6698466435094" width="213.1584412271571"><g><svg viewBox="0 0 213.1584412271571 175.6698466435094" height="175.6698466435094" width="213.1584412271571"><g id="textblocktransform"><svg viewBox="0 0 213.1584412271571 175.6698466435094" height="175.6698466435094" width="213.1584412271571" id="textblock"><g><svg viewBox="0 0 213.1584412271571 175.6698466435094" height="175.6698466435094" width="213.1584412271571"><path d="M212.659 37.678C211.657 19.443 208.801 14.374 208.801 14.374 200.033-4.407 189.09-0.359 179.259 2.339 161.903 2.449 144.617 6.46 127.3 8.612 90.954 8.94 54.297 3.543 18.131 16.854 14.734 20.939-3.524 17.656 0.604 40.012 1.687 49.311 5.635 59.632 5.515 68.166 6.056 69.661 6.807 66.233 7.128 68.385 8.25 74.183 10.084 71.448 11.587 74.876 9.493 84.03 10.996 91.652 12.429 99.639 9.904 101.717 6.667 100.733 5.214 107.625 5.064 112.621 4.252 111.673 3.36 111.454 2.709 111.309 1.396 111.856 1.616 113.424 2.368 118.785-0.859 121.885 1.165 127.136-0.227 132.825 2.127 137.749 1.807 143.912 1.767 145.152 1.987 146.209 2.338 146.501 3.891 148.069 1.626 151.133 1.867 154.451 17.8 177.135 35.087 161.453 51.411 171.884 55.65 164.59 52.463 174.473 54.157 172.941 55.479 171.154 56.441 178.557 57.935 174.363 58.165 173.16 57.814 170.315 58.636 170.862 59.067 171.154 59.448 171.081 59.508 169.404 59.598 166.887 58.806 168.455 58.596 167.143 60.871 160.505 60.31 176.296 62.444 175.64 62.344 173.707 61.723 170.935 62.995 171.3 64.258 168.528 64.298 166.231 65.42 172.467 65.46 173.816 65.661 174.765 65.981 175.421 69.489 168.638 72.976 177.828 76.654 174.765 78.909 171.409 81.073 176.588 83.358 175.312 84.16 174.29 84.971 172.467 85.743 175.53 95.193 176.187 105.264 173.452 114.223 175.64 138.163 171.555 163.747 177.317 188.99 171.92 194.942 169.841 201.125 166.887 206.927 164.517 206.927 164.517 211.627 158.025 211.627 128.85S212.629 103.322 212.78 80.091C212.93 56.86 213.631 55.912 212.629 37.678Z" opacity="1" fill="#ee3e38" data-fill-palette-color="tertiary"></path><g transform="matrix(1,0,0,1,30.055340213029154,20.326479041326117)"><svg width="153.0477608010988" viewBox="-1.2470588684082031 -33.29999923706055 37.7470588684082 33.29999923706055" height="135.01688856085715" data-palette-color="#ffffff"><path d="M32.6-33.3Q34.45-33.3 35.48-32.5 36.5-31.7 36.5-30.3L36.5-30.3Q36.5-29.6 36.3-28.95L36.3-28.95 35-24.3Q34.65-23 33.85-22.45 33.05-21.9 31.75-21.9L31.75-21.9Q30.5-21.9 29.75-22.43 29-22.95 28.65-24.15L28.65-24.15 27.85-27Q27.65-27.75 27.35-28 27.05-28.25 26.1-28.25L26.1-28.25 21.1-28.25 18.3-18.35 19.25-18.35Q19.95-18.35 20.48-18.55 21-18.75 21.6-19.3L21.6-19.3 23.15-20.6Q24-21.35 24.68-21.68 25.35-22 26.1-22L26.1-22Q27.05-22 27.68-21.45 28.3-20.9 28.3-19.9L28.3-19.9Q28.3-19.5 28.15-18.95L28.15-18.95 25.95-11.35Q25.2-8.9 23.25-8.9L23.25-8.9Q21.65-8.9 20.75-10.55L20.75-10.55 19.85-12.25Q19.5-12.95 19.2-13.15 18.9-13.35 18.3-13.35L18.3-13.35 16.85-13.35 14.75-5.9Q14.65-5.6 14.65-5.1L14.65-5.1Q14.65-4.4 14.98-3.95 15.3-3.5 15.95-3L15.95-3Q16.5-2.55 16.7-2.27 16.9-2 16.9-1.6L16.9-1.6Q16.9-0.7 16.1-0.35 15.3 0 13.75 0L13.75 0 1.2 0Q-0.1 0-0.75-0.48-1.4-0.95-1.2-1.8L-1.2-1.8Q-1.1-2.25-0.83-2.53-0.55-2.8 0-3.15L0-3.15Q0.85-3.65 1.35-4.2 1.85-4.75 2.15-5.9L2.15-5.9 8.3-27.45Q8.5-28.1 8.5-28.65L8.5-28.65Q8.5-29.25 8.33-29.65 8.15-30.05 7.8-30.5L7.8-30.5Q7.35-31.15 7.35-31.55L7.35-31.55Q7.35-31.7 7.45-32.1L7.45-32.1Q7.65-32.75 8.35-33.02 9.05-33.3 10.4-33.3L10.4-33.3 32.6-33.3Z" opacity="1" transform="matrix(1,0,0,1,0,0)" fill="#ffffff" class="wordmark-text-0" data-fill-palette-color="quaternary" id="text-0"></path></svg></g></svg></g></svg></g></svg></g><g></g></svg></g></svg></g></svg></g><defs></defs></svg><rect width="342.85155851775386" height="342.85155851775386" fill="none" stroke="none" visibility="hidden"></rect></g></svg></g></svg>